<svg xmlns="http://www.w3.org/2000/svg" xmlns:xlink="http://www.w3.org/1999/xlink" viewBox="0,0,256,256" width="50px" height="50px" fill-rule="nonzero"><g fill="#ffffff" fill-rule="nonzero" stroke="none" stroke-width="1" stroke-linecap="butt" stroke-linejoin="miter" stroke-miterlimit="10" stroke-dasharray="" stroke-dashoffset="0" font-family="none" font-weight="none" font-size="none" text-anchor="none" style="mix-blend-mode: normal"><g transform="scale(5.33333,5.33333)"><path d="M5.43555,10.95703c-2.24145,0 -3.94823,2.20405 -3.33008,4.37109c1.60947,5.64875 3.99535,11.18019 7.55664,15.5293c3.56129,4.3491 8.37781,7.50153 14.53711,8.12695c2.05018,0.20802 3.81836,-1.46324 3.81836,-3.49023v-4.04687c0,-0.25252 0.17246,-0.43196 0.36914,-0.4375c0.03642,-0.00087 0.06553,-0.00195 0.08398,-0.00195c0.70734,0 2.1608,0.88617 3.4375,2.26367c1.2767,1.3775 2.4059,3.08279 2.94922,4.02734v0.00195c0.61476,1.06689 1.76026,1.71094 2.97852,1.71094h4.87305c2.42697,0.0018 4.05099,-2.7398 2.86328,-4.86328c-1.86474,-3.33527 -5.58491,-6.63403 -7.44531,-8.2793c3.40858,-3.74313 5.66851,-7.82237 6.66992,-10.52734c0.75572,-2.04371 -0.8025,-4.34375 -3,-4.34375h-3.47852c-1.51206,0 -2.92183,0.73674 -3.49805,1.91601c-2.70723,5.54763 -5.12035,7.58519 -6.82031,9.05274v-7.52734c0,-1.87793 -1.55821,-3.42618 -3.42969,-3.42969l-6.0918,-0.00977c-1.93989,-0.0024 -3.14276,2.39349 -1.98047,3.94727l1.17578,1.57422l0.00195,0.00391c0.20152,0.26649 0.30859,0.58581 0.30859,0.91406v0.00195l0.02344,6.27734c-2.42295,-2.55532 -5.05531,-7.96819 -5.84961,-10.38281v-0.00195c-0.46389,-1.41049 -1.79845,-2.36286 -3.27148,-2.36719h-0.00195l-3.44727,-0.00977zM5.43555,13.95703l3.44336,0.00977c0.21165,0.0005 0.36731,0.11471 0.42969,0.30469c0.98629,2.99924 3.57766,8.71377 6.86328,11.91406c0.85321,0.83123 2.10548,0.99973 3.07617,0.60547c0.97069,-0.39426 1.76172,-1.41601 1.76172,-2.61523v-0.00195l-0.02539,-6.73437c0,-0.98078 -0.32107,-1.93461 -0.91016,-2.7168l-0.00195,-0.00391l-0.53711,-0.7168l5.0293,0.00781c0.26257,0.00051 0.43555,0.17161 0.43555,0.42969v7.60352c0,2.43475 3.06637,3.83367 4.91016,2.24219h0.00195c1.69007,-1.45988 4.68076,-4.06542 7.60352,-10.05469c0.06778,-0.13872 0.0088,-0.23242 0.80273,-0.23242h3.47852c0.2025,0 0.26183,0.09645 0.18555,0.30273c-0.85083,2.29824 -3.0216,6.30604 -6.24023,9.77344c-0.99206,1.06888 -0.95164,2.83494 0.16992,3.82813c1.75814,1.55509 5.59531,5.1232 7.04102,7.70898c0.13229,0.23651 0.03284,0.40059 -0.24219,0.40039h-4.875c-0.16775,0 -0.30566,-0.08187 -0.37891,-0.20898c-0.64968,-1.12945 -1.84111,-2.94482 -3.34766,-4.57031c-1.50655,-1.6255 -3.30001,-3.22461 -5.63867,-3.22461c-0.06626,0 -0.12052,0.00089 -0.16211,0.00195h-0.00391h-0.00195c-1.86132,0.05246 -3.28516,1.63202 -3.28516,3.4375v4.04688c0,0.311 -0.23981,0.53384 -0.51562,0.50586c-5.3237,-0.54058 -9.33632,-3.15557 -12.51953,-7.04297c-3.18321,-3.8874 -5.45666,-9.06192 -6.99219,-14.45117c-0.08585,-0.30096 0.09876,-0.54883 0.44531,-0.54883z"></path></g></g></svg>