<svg height="480pt" fill="#ffffff" viewBox="-40 0 480 480" width="480pt" xmlns="http://www.w3.org/2000/svg"><path d="m328 248h-96v-80c0-13.601562-10.398438-24-24-24h-8c-13.601562 0-24 10.398438-24 24v104h-16c-13.601562 0-24 10.398438-24 24v58.398438l48 88v37.601562h144v-38.398438l24-56v-113.601562c0-13.601562-10.398438-24-24-24zm-128 216v-16h112v16zm136-81.601562-21.601562 49.601562h-117.597657l-44.800781-82.398438v-53.601562c0-4.800781 3.199219-8 8-8h16v32h16v-152c0-4.800781 3.199219-8 8-8h8c4.800781 0 8 3.199219 8 8v136h16v-40h24v40h16v-40h24v40h16v-40h16c4.800781 0 8 3.199219 8 8zm0 0"/><path d="m296 389.601562-14.398438 21.597657 12.796876 9.601562 17.601562-26.402343v-34.398438h-16zm0 0"/><path d="m357.601562 0h-315.203124l-42.398438 110.398438v297.601562h144v-16h-128v-272h96v-16h-92l20.800781-56h95.199219v-16h-88.800781l6.402343-16h292.796876l6.402343 16h-88.800781v16h95.199219l20.800781 56h-92v16h96v272h-16v16h32v-297.601562zm0 0"/><path d="m173.601562 98.398438-11.203124 11.203124 21.601562 21.597657 45.601562-45.597657-11.203124-11.203124-34.398438 34.402343zm0 0"/><path d="m254.398438 152c26.402343-29.601562 23.203124-75.199219-6.398438-101.601562-30.398438-26.398438-76-24-102.398438 5.601562-26.402343 29.601562-23.203124 75.199219 6.398438 101.601562l10.398438-12c-23.199219-20.800781-25.597657-56-4.796876-79.203124 20.796876-23.199219 56-25.597657 79.199219-4.796876 23.199219 20.796876 25.597657 56 4.800781 79.199219zm0 0"/></svg>